<svg width="83" height="76" viewBox="0 0 83 76" fill="none" xmlns="http://www.w3.org/2000/svg">
<path d="M81.6406 67.8906H7.73438V0.859375C7.73438 0.386719 7.34766 0 6.875 0H0.859375C0.386719 0 0 0.386719 0 0.859375V74.7656C0 75.2383 0.386719 75.625 0.859375 75.625H81.6406C82.1133 75.625 82.5 75.2383 82.5 74.7656V68.75C82.5 68.2773 82.1133 67.8906 81.6406 67.8906ZM19.0996 51.3154C19.4326 51.6484 19.9697 51.6484 20.3135 51.3154L35.1699 36.5342L48.877 50.3271C49.21 50.6602 49.7578 50.6602 50.0908 50.3271L79.6748 20.7539C80.0078 20.4209 80.0078 19.873 79.6748 19.54L75.4209 15.2861C75.2594 15.1262 75.0413 15.0365 74.814 15.0365C74.5867 15.0365 74.3685 15.1262 74.207 15.2861L49.5 39.9824L35.8145 26.2109C35.6529 26.051 35.4348 25.9613 35.2075 25.9613C34.9802 25.9613 34.7621 26.051 34.6006 26.2109L14.8564 45.8369C14.6965 45.9984 14.6068 46.2165 14.6068 46.4438C14.6068 46.6711 14.6965 46.8893 14.8564 47.0508L19.0996 51.3154Z" fill="black"/>
</svg>
