<svg width="84" height="84" viewBox="0 0 84 84" fill="none" xmlns="http://www.w3.org/2000/svg">
<path d="M41.6667 37.5C47.192 37.5 52.491 39.6949 56.3981 43.6019C60.3051 47.5089 62.5 52.808 62.5 58.3333V83.3333H54.1667V58.3333C54.1668 55.145 52.9486 52.077 50.7613 49.7572C48.574 47.4375 45.5829 46.0412 42.4 45.8542L41.6667 45.8333C38.4783 45.8332 35.4104 47.0514 33.0906 49.2387C30.7708 51.426 29.3746 54.4171 29.1875 57.6L29.1667 58.3333V83.3333H20.8333V58.3333C20.8333 52.808 23.0283 47.5089 26.9353 43.6019C30.8423 39.6949 36.1413 37.5 41.6667 37.5ZM14.5833 50C15.7458 50 16.875 50.1375 17.9583 50.3917C17.2459 52.5125 16.824 54.7201 16.7042 56.9542L16.6667 58.3333V58.6917C16.1877 58.5203 15.6896 58.4083 15.1833 58.3583L14.5833 58.3333C13.0297 58.3334 11.5317 58.9122 10.3816 59.9567C9.23147 61.0013 8.51165 62.4368 8.3625 63.9833L8.33333 64.5833V83.3333H0V64.5833C0 60.7156 1.53645 57.0063 4.27136 54.2714C7.00626 51.5365 10.7156 50 14.5833 50V50ZM68.75 50C72.6177 50 76.3271 51.5365 79.062 54.2714C81.7969 57.0063 83.3333 60.7156 83.3333 64.5833V83.3333H75V64.5833C74.9999 63.0297 74.4212 61.5317 73.3766 60.3816C72.332 59.2315 70.8965 58.5117 69.35 58.3625L68.75 58.3333C68.0208 58.3333 67.3208 58.4583 66.6667 58.6875V58.3333C66.6667 55.5583 66.2167 52.8917 65.3792 50.4C66.4828 50.1328 67.6145 49.9985 68.75 50ZM14.5833 25C17.346 25 19.9955 26.0975 21.949 28.051C23.9025 30.0045 25 32.654 25 35.4167C25 38.1793 23.9025 40.8289 21.949 42.7824C19.9955 44.7359 17.346 45.8333 14.5833 45.8333C11.8207 45.8333 9.17114 44.7359 7.21764 42.7824C5.26413 40.8289 4.16667 38.1793 4.16667 35.4167C4.16667 32.654 5.26413 30.0045 7.21764 28.051C9.17114 26.0975 11.8207 25 14.5833 25V25ZM68.75 25C71.5127 25 74.1622 26.0975 76.1157 28.051C78.0692 30.0045 79.1667 32.654 79.1667 35.4167C79.1667 38.1793 78.0692 40.8289 76.1157 42.7824C74.1622 44.7359 71.5127 45.8333 68.75 45.8333C65.9873 45.8333 63.3378 44.7359 61.3843 42.7824C59.4308 40.8289 58.3333 38.1793 58.3333 35.4167C58.3333 32.654 59.4308 30.0045 61.3843 28.051C63.3378 26.0975 65.9873 25 68.75 25V25ZM14.5833 33.3333C14.0308 33.3333 13.5009 33.5528 13.1102 33.9435C12.7195 34.3342 12.5 34.8641 12.5 35.4167C12.5 35.9692 12.7195 36.4991 13.1102 36.8898C13.5009 37.2805 14.0308 37.5 14.5833 37.5C15.1359 37.5 15.6658 37.2805 16.0565 36.8898C16.4472 36.4991 16.6667 35.9692 16.6667 35.4167C16.6667 34.8641 16.4472 34.3342 16.0565 33.9435C15.6658 33.5528 15.1359 33.3333 14.5833 33.3333ZM68.75 33.3333C68.1975 33.3333 67.6676 33.5528 67.2769 33.9435C66.8862 34.3342 66.6667 34.8641 66.6667 35.4167C66.6667 35.9692 66.8862 36.4991 67.2769 36.8898C67.6676 37.2805 68.1975 37.5 68.75 37.5C69.3025 37.5 69.8324 37.2805 70.2231 36.8898C70.6138 36.4991 70.8333 35.9692 70.8333 35.4167C70.8333 34.8641 70.6138 34.3342 70.2231 33.9435C69.8324 33.5528 69.3025 33.3333 68.75 33.3333ZM41.6667 0C46.0869 0 50.3262 1.75595 53.4518 4.88155C56.5774 8.00716 58.3333 12.2464 58.3333 16.6667C58.3333 21.0869 56.5774 25.3262 53.4518 28.4518C50.3262 31.5774 46.0869 33.3333 41.6667 33.3333C37.2464 33.3333 33.0072 31.5774 29.8816 28.4518C26.7559 25.3262 25 21.0869 25 16.6667C25 12.2464 26.7559 8.00716 29.8816 4.88155C33.0072 1.75595 37.2464 0 41.6667 0V0ZM41.6667 8.33333C39.4565 8.33333 37.3369 9.21131 35.7741 10.7741C34.2113 12.3369 33.3333 14.4565 33.3333 16.6667C33.3333 18.8768 34.2113 20.9964 35.7741 22.5592C37.3369 24.122 39.4565 25 41.6667 25C43.8768 25 45.9964 24.122 47.5592 22.5592C49.122 20.9964 50 18.8768 50 16.6667C50 14.4565 49.122 12.3369 47.5592 10.7741C45.9964 9.21131 43.8768 8.33333 41.6667 8.33333V8.33333Z" fill="black"/>
</svg>
