<svg width="80" height="80" viewBox="0 0 80 80" fill="none" xmlns="http://www.w3.org/2000/svg">
<path d="M39.5942 39.5942C44.8447 39.5942 49.8802 37.5085 53.5929 33.7958C57.3056 30.0831 59.3913 25.0476 59.3913 19.7971C59.3913 14.5466 57.3056 9.51112 53.5929 5.79844C49.8802 2.08576 44.8447 0 39.5942 0C34.3437 0 29.3082 2.08576 25.5955 5.79844C21.8829 9.51112 19.7971 14.5466 19.7971 19.7971C19.7971 25.0476 21.8829 30.0831 25.5955 33.7958C29.3082 37.5085 34.3437 39.5942 39.5942 39.5942V39.5942ZM52.7923 19.7971C52.7923 23.2975 51.4018 26.6544 48.9267 29.1296C46.4515 31.6047 43.0946 32.9952 39.5942 32.9952C36.0939 32.9952 32.7369 31.6047 30.2618 29.1296C27.7866 26.6544 26.3961 23.2975 26.3961 19.7971C26.3961 16.2968 27.7866 12.9398 30.2618 10.4647C32.7369 7.98954 36.0939 6.59904 39.5942 6.59904C43.0946 6.59904 46.4515 7.98954 48.9267 10.4647C51.4018 12.9398 52.7923 16.2968 52.7923 19.7971V19.7971ZM79.1884 72.5894C79.1884 79.1884 72.5894 79.1884 72.5894 79.1884H6.59904C6.59904 79.1884 0 79.1884 0 72.5894C0 65.9904 6.59904 46.1933 39.5942 46.1933C72.5894 46.1933 79.1884 65.9904 79.1884 72.5894ZM72.5894 72.563C72.5828 70.9396 71.5731 66.0563 67.099 61.5822C62.7964 57.2796 54.6994 52.7923 39.5942 52.7923C24.4824 52.7923 16.392 57.2796 12.0894 61.5822C7.61529 66.0563 6.61223 70.9396 6.59904 72.563H72.5894Z" fill="white"/>
</svg>
