<svg width="18" height="25" viewBox="0 0 18 25" fill="none" xmlns="http://www.w3.org/2000/svg">
<path d="M9 0C4.02429 0 0 3.9125 0 8.75C0 15.3125 9 25 9 25C9 25 18 15.3125 18 8.75C18 3.9125 13.9757 0 9 0ZM9 11.875C8.14752 11.875 7.32995 11.5458 6.72716 10.9597C6.12436 10.3737 5.78571 9.5788 5.78571 8.75C5.78571 7.9212 6.12436 7.12634 6.72716 6.54029C7.32995 5.95424 8.14752 5.625 9 5.625C9.85248 5.625 10.67 5.95424 11.2728 6.54029C11.8756 7.12634 12.2143 7.9212 12.2143 8.75C12.2143 9.5788 11.8756 10.3737 11.2728 10.9597C10.67 11.5458 9.85248 11.875 9 11.875Z" fill="black"/>
</svg>
