<svg width="23" height="17" viewBox="0 0 23 17" fill="none" xmlns="http://www.w3.org/2000/svg">
<path d="M21.4846 0.00744456C21.3883 -0.00248152 21.2912 -0.00248152 21.1949 0.00744456H1.40679C1.27996 0.00939873 1.15398 0.0284152 1.03223 0.063982L11.2443 10.2337L21.4846 0.00744456Z" fill="black"/>
<path d="M22.5302 0.989868L12.2404 11.2373C11.9755 11.5005 11.6173 11.6483 11.2439 11.6483C10.8705 11.6483 10.5122 11.5005 10.2474 11.2373L0.0494703 1.06761C0.0181198 1.18283 0.00149731 1.30156 0 1.42097V15.5553C0 15.9302 0.148915 16.2897 0.413986 16.5548C0.679057 16.8198 1.03857 16.9688 1.41344 16.9688H21.2015C21.5764 16.9688 21.9359 16.8198 22.201 16.5548C22.4661 16.2897 22.615 15.9302 22.615 15.5553V1.42097C22.6094 1.27372 22.5807 1.12827 22.5302 0.989868ZM2.38164 15.5553H1.3993V14.5447L6.53714 9.44928L7.53361 10.4458L2.38164 15.5553ZM21.1874 15.5553H20.198L15.046 10.4458L16.0425 9.44928L21.1803 14.5447L21.1874 15.5553Z" fill="black"/>
</svg>
