<svg width="105" height="80" viewBox="0 0 105 80" fill="none" xmlns="http://www.w3.org/2000/svg">
<path d="M55.9795 0L52.9365 5.482L31.1746 44.6353L24.7815 38.3079L22.5793 41.934L3.02637 74.1886L0 79.1884H104.385L102.389 74.5816L92.3794 51.4647L90.4374 46.9833L83.5372 53.8127L58.8357 5.58107L55.9828 0H55.9795ZM55.7359 14.1409L65.8794 33.9421L63.2969 36.1349L55.6892 29.6853L48.0849 36.1349L44.9818 33.4963L55.7359 14.1409V14.1409ZM55.6926 38.3806L63.3002 44.8302L68.9792 40.0087L79.6566 60.8634L81.732 64.9352L88.1785 58.555L94.2513 72.5836H11.7818C16.5533 64.7074 21.3314 56.8311 26.1062 48.9582L32.7395 55.5234L34.8817 51.6728C37.154 47.5844 39.4296 43.4993 41.6985 39.4109L48.0849 44.8269L55.6926 38.3806V38.3806Z" fill="white"/>
</svg>
