<svg width="84" height="84" viewBox="0 0 84 84" fill="none" xmlns="http://www.w3.org/2000/svg">
<path d="M78.7533 1.6525C74.0756 0.604868 69.2969 0.0739095 64.5033 0.0691663C59.9762 -0.218276 55.4369 0.392076 51.1464 1.86512C46.856 3.33817 42.8991 5.64484 39.5033 8.6525C35.0311 13.1247 30.6005 17.5831 26.2116 22.0275C21.17 21.4858 9.21164 21.1942 1.21164 29.2775C0.435591 30.0582 0 31.1142 0 32.215C0 33.3158 0.435591 34.3718 1.21164 35.1525L48.295 82.3192C49.0757 83.0952 50.1317 83.5308 51.2325 83.5308C52.3332 83.5308 53.3893 83.0952 54.17 82.3192C62.295 73.9858 62.045 62.2358 61.545 57.3192L74.92 43.9858C88.2116 30.6942 82.17 5.73583 81.92 4.69417C81.7276 3.94264 81.3293 3.25975 80.7698 2.72236C80.2103 2.18498 79.512 1.81445 78.7533 1.6525V1.6525ZM68.92 38.1108L54.0866 52.8608C53.6063 53.3459 53.2524 53.9416 53.0563 54.5955C52.8601 55.2494 52.8276 55.9414 52.9616 56.6108C53.8617 62.185 53.0783 67.901 50.7116 73.0275L10.42 32.6525C15.6277 30.2557 21.4492 29.528 27.0866 30.5692C27.7536 30.656 28.4317 30.5801 29.063 30.3479C29.6942 30.1157 30.2599 29.7342 30.7116 29.2358C30.7116 29.2358 36.545 23.1942 45.3366 14.4025C50.7426 10.0613 57.5869 7.91873 64.5033 8.4025C67.7566 8.41862 71.0032 8.6973 74.2116 9.23583C75.2116 15.1942 76.795 30.2358 68.92 38.1108V38.1108Z" fill="black"/>
<path d="M57.1283 34.6525C61.7306 34.6525 65.4616 30.9215 65.4616 26.3192C65.4616 21.7168 61.7306 17.9858 57.1283 17.9858C52.5259 17.9858 48.7949 21.7168 48.7949 26.3192C48.7949 30.9215 52.5259 34.6525 57.1283 34.6525Z" fill="black"/>
<path d="M12.42 58.4026C4.08667 62.5693 4.08667 79.2359 4.08667 79.2359C11.7995 79.0159 19.1831 76.0624 24.92 70.9026L12.42 58.4026Z" fill="black"/>
</svg>
