<svg width="86" height="86" viewBox="0 0 86 86" fill="none" xmlns="http://www.w3.org/2000/svg">
<path d="M60.1561 73.2877L57.7743 52.9996C57.4368 50.1259 56.1241 47.4825 54.0832 45.5663C52.0422 43.65 49.4136 42.5931 46.6916 42.5942H38.4894C35.7686 42.5951 33.1418 43.6528 31.1024 45.5689C29.063 47.4849 27.7514 50.1273 27.4141 52.9996L25.0286 73.2877C24.8977 74.4023 24.9911 75.5338 25.3028 76.607C25.6144 77.6803 26.1371 78.6707 26.8361 79.5125C27.5352 80.3544 28.3946 81.0283 29.3572 81.4897C30.3198 81.9511 31.3637 82.1892 32.4195 82.1884H52.7689C53.8244 82.1887 54.8678 81.9501 55.83 81.4885C56.7922 81.0269 57.6511 80.3528 58.3498 79.5111C59.0484 78.6693 59.5707 77.6791 59.8822 76.6061C60.1936 75.5331 60.287 74.402 60.1561 73.2877V73.2877Z" stroke="white" stroke-width="6" stroke-linecap="round" stroke-linejoin="round"/>
<path d="M42.5941 26.7565C48.7602 26.7565 53.7587 21.4384 53.7587 14.8783C53.7587 8.31808 48.7602 3 42.5941 3C36.4281 3 31.4295 8.31808 31.4295 14.8783C31.4295 21.4384 36.4281 26.7565 42.5941 26.7565Z" stroke="white" stroke-width="6"/>
<path d="M12.822 38.6348C16.9327 38.6348 20.2651 35.0894 20.2651 30.716C20.2651 26.3425 16.9327 22.7971 12.822 22.7971C8.71133 22.7971 5.37896 26.3425 5.37896 30.716C5.37896 35.0894 8.71133 38.6348 12.822 38.6348Z" stroke="white" stroke-width="6"/>
<path d="M72.3664 38.6348C76.4771 38.6348 79.8095 35.0894 79.8095 30.716C79.8095 26.3425 76.4771 22.7971 72.3664 22.7971C68.2558 22.7971 64.9234 26.3425 64.9234 30.716C64.9234 35.0894 68.2558 38.6348 72.3664 38.6348Z" stroke="white" stroke-width="6"/>
<path d="M12.822 50.5132H11.6832C9.92133 50.513 8.21647 51.1777 6.87196 52.3892C5.52746 53.6007 4.6305 55.2804 4.34067 57.1294L3.1014 65.0482C2.92355 66.1828 2.98015 67.3449 3.26726 68.4538C3.55437 69.5628 4.06509 70.5918 4.76391 71.4695C5.46272 72.3471 6.33285 73.0522 7.31377 73.5358C8.2947 74.0194 9.36286 74.2698 10.444 74.2697H23.9866" stroke="white" stroke-width="6" stroke-linecap="round" stroke-linejoin="round"/>
<path d="M72.3663 50.5132H73.5051C75.267 50.513 76.9719 51.1777 78.3164 52.3892C79.6609 53.6007 80.5579 55.2804 80.8477 57.1294L82.087 65.0482C82.2648 66.1828 82.2082 67.3449 81.9211 68.4538C81.634 69.5628 81.1233 70.5918 80.4245 71.4695C79.7256 72.3471 78.8555 73.0522 77.8746 73.5358C76.8937 74.0194 75.8255 74.2698 74.7444 74.2697H61.2017" stroke="white" stroke-width="6" stroke-linecap="round" stroke-linejoin="round"/>
</svg>
