<svg width="19" height="19" viewBox="0 0 19 19" fill="none" xmlns="http://www.w3.org/2000/svg">
<path d="M12.6675 13.5032L14.3036 11.8664C14.5239 11.6487 14.8027 11.4997 15.1061 11.4374C15.4095 11.3752 15.7244 11.4024 16.0127 11.5157L18.0067 12.3121C18.2979 12.4304 18.5477 12.6323 18.7245 12.8924C18.9013 13.1525 18.9971 13.459 19 13.7735V17.427C18.9983 17.6409 18.9534 17.8523 18.8678 18.0484C18.7823 18.2445 18.6581 18.4212 18.5025 18.568C18.3469 18.7148 18.1632 18.8285 17.9625 18.9024C17.7618 18.9763 17.5483 19.0088 17.3347 18.998C3.36224 18.1284 0.542915 6.29127 0.00972701 1.76099C-0.015024 1.53852 0.00759034 1.31333 0.0760821 1.10024C0.144574 0.887139 0.257391 0.690964 0.407111 0.524618C0.556831 0.358272 0.740062 0.225524 0.944748 0.135108C1.14943 0.0446917 1.37094 -0.00134385 1.59468 2.98626e-05H5.12249C5.4373 0.000962066 5.74463 0.0960917 6.00495 0.273183C6.26528 0.450274 6.46669 0.701229 6.58328 0.993768L7.37941 2.98855C7.49646 3.27576 7.52632 3.59111 7.46527 3.8952C7.40422 4.19929 7.25495 4.47864 7.03613 4.69836L5.40004 6.33511C5.40004 6.33511 6.34225 12.714 12.6675 13.5032Z" fill="black"/>
</svg>
