<svg width="81" height="64" viewBox="0 0 81 64" fill="none" xmlns="http://www.w3.org/2000/svg">
<path d="M6.78915 9.168C12.4012 3.084 20.8932 0 32.0252 0H36.0252V11.276L32.8092 11.92C27.3292 13.016 23.5172 15.172 21.4772 18.336C20.4127 20.0405 19.809 21.9922 19.7252 24H32.0252C33.086 24 34.1034 24.4214 34.8536 25.1716C35.6037 25.9217 36.0252 26.9391 36.0252 28V56C36.0252 60.412 32.4372 64 28.0252 64H4.02515C2.96429 64 1.94687 63.5786 1.19672 62.8284C0.446579 62.0783 0.0251513 61.0609 0.0251513 60V40L0.0371514 28.324C0.00115141 27.88 -0.758849 17.36 6.78915 9.168ZM72.0252 64H48.0252C46.9643 64 45.9469 63.5786 45.1967 62.8284C44.4466 62.0783 44.0252 61.0609 44.0252 60V40L44.0372 28.324C44.0012 27.88 43.2412 17.36 50.7892 9.168C56.4012 3.084 64.8932 0 76.0252 0H80.0252V11.276L76.8092 11.92C71.3292 13.016 67.5172 15.172 65.4772 18.336C64.4127 20.0405 63.809 21.9922 63.7252 24H76.0252C77.086 24 78.1034 24.4214 78.8536 25.1716C79.6037 25.9217 80.0252 26.9391 80.0252 28V56C80.0252 60.412 76.4372 64 72.0252 64Z" fill="black"/>
</svg>
